<svg id="Layer_1" data-name="Layer 1" xmlns="http://www.w3.org/2000/svg" viewBox="0 0 58.52 50.46"><defs><style>.cls-1{fill:#fff;}</style></defs><polygon class="cls-1" points="38.84 0 19.68 0 29.26 16.3 38.84 0"/><polygon class="cls-1" points="58.52 33.17 58.52 33.17 58.52 33.17 58.52 33.17"/><polygon class="cls-1" points="38.95 32.8 58.31 32.8 39.49 0.37 29.7 17.04 38.95 32.8"/><polygon class="cls-1" points="0 33.17 0 33.17 0 33.17 0 33.17"/><polygon class="cls-1" points="48.9 50.46 48.9 50.46 48.9 50.46 48.9 50.46"/><polygon class="cls-1" points="28.83 17.04 19.03 0.37 0.22 32.8 19.57 32.8 28.83 17.04"/><polygon class="cls-1" points="49.11 50.08 58.31 33.55 39.39 33.55 49.11 50.08"/><polygon class="cls-1" points="20 33.55 10.06 50.46 48.46 50.46 38.52 33.55 20 33.55"/><polygon class="cls-1" points="0.21 33.55 9.41 50.08 19.13 33.55 0.21 33.55"/></svg>