<?xml version="1.0" encoding="utf-8"?>
<!-- Generator: Adobe Illustrator 25.2.3, SVG Export Plug-In . SVG Version: 6.00 Build 0)  -->
<svg version="1.1" id="Layer_1" xmlns="http://www.w3.org/2000/svg" xmlns:xlink="http://www.w3.org/1999/xlink" x="0px" y="0px"
	 viewBox="0 0 93 90.4" style="enable-background:new 0 0 93 90.4;" xml:space="preserve">
<style type="text/css">
	.st0{fill:#FFFFFF;}
</style>
<path class="st0" d="M52.5,45.2C74.2,42.4,91.5,25,93,3.3L93,3c-0.1-0.8-0.4-1.6-1-2.2C91.3,0.2,90.5,0,89.7,0
	C67.2,1.4,49.3,18.3,46.5,39.4C43.7,18.3,25.7,1.4,3.3,0L3,0C1.2,0.1-0.1,1.6,0,3.3C1.5,25,18.8,42.4,40.5,45.2
	C18.8,47.9,1.5,65.3,0,87.1l0,0.3c0.1,0.8,0.4,1.6,1,2.2c0.6,0.5,1.3,0.8,2,0.8c0.1,0,0.1,0,0.2,0C25.8,89,43.7,72.1,46.5,50.9
	c2.8,21.2,20.8,38,43.2,39.4l0.3,0c0.8-0.1,1.6-0.4,2.2-1c0.6-0.6,0.9-1.4,0.8-2.3C91.5,65.3,74.2,47.9,52.5,45.2z"/>
</svg>
