<?xml version="1.0" encoding="utf-8"?>
<!-- Generator: Adobe Illustrator 25.2.3, SVG Export Plug-In . SVG Version: 6.00 Build 0)  -->
<svg version="1.1" id="Layer_1" xmlns="http://www.w3.org/2000/svg" xmlns:xlink="http://www.w3.org/1999/xlink" x="0px" y="0px"
	 viewBox="0 0 39.7 39.7" style="enable-background:new 0 0 39.7 39.7;" xml:space="preserve">
<style type="text/css">
	.st0{filter:url(#Adobe_OpacityMaskFilter);}
	.st1{fill-rule:evenodd;clip-rule:evenodd;fill:#FFFFFF;}
	.st2{mask:url(#mask-2_32_);fill-rule:evenodd;clip-rule:evenodd;fill:#FFFFFF;}
</style>
<g id="Clip-4">
</g>
<defs>
	<filter id="Adobe_OpacityMaskFilter" filterUnits="userSpaceOnUse" x="0" y="0" width="39.7" height="39.7">
		<feColorMatrix  type="matrix" values="1 0 0 0 0  0 1 0 0 0  0 0 1 0 0  0 0 0 1 0"/>
	</filter>
</defs>
<mask maskUnits="userSpaceOnUse" x="0" y="0" width="39.7" height="39.7" id="mask-2_32_">
	<g class="st0">
		<polygon id="path-1_32_" class="st1" points="0,39.7 279.8,39.7 279.8,0 0,0 		"/>
	</g>
</mask>
<path id="Fill-35" class="st2" d="M15.6,0.8C15.9,0.3,16.4,0,16.9,0c1.9,0,3.9,0,5.8,0c0.5,0,1.1,0.3,1.3,0.8c0.2,0.4,0,0.9,0.2,1.4
	c0.2,0.6,0.6,1.1,1.2,1.3c0.7,0.3,1.3,0.6,2,0.8c0.6,0.3,1.3,0.2,1.9-0.1c0.4-0.2,0.6-0.6,1-0.8c0.5-0.2,1.2-0.1,1.6,0.3
	c1.4,1.4,2.9,2.8,4.3,4.3c0.3,0.4,0.4,1,0.1,1.5c-0.2,0.4-0.6,0.6-0.8,0.9c-0.3,0.6-0.4,1.3-0.1,1.9c0.3,0.6,0.5,1.3,0.8,1.9
	c0.2,0.6,0.7,1,1.3,1.2c0.4,0.1,0.9,0,1.4,0.2c0.5,0.2,0.9,0.7,0.9,1.3c0,1.9,0,3.9,0,5.8c0,0.6-0.3,1.1-0.8,1.3
	c-0.4,0.2-0.9,0-1.4,0.2c-0.6,0.2-1.1,0.6-1.3,1.2c-0.3,0.7-0.5,1.3-0.8,2c-0.3,0.6-0.2,1.3,0.1,1.8c0.2,0.4,0.6,0.6,0.8,1
	c0.2,0.5,0.1,1.1-0.3,1.5c-0.5,0.5-1,1-1.4,1.4c-2.7-2.8-5.5-5.5-8.2-8.2c-0.6-0.7-1.1-1.5-1.1-2.4c0-0.4,0-0.7,0.1-1.1
	c0.1-0.2,0.1-0.3,0.2-0.5c0.5-1,1.4-1.8,2.2-2.6c0.3-0.2,0.6-0.4,0.9-0.6c0.7-0.4,1.3-1,1.7-1.8c0.2-0.4,0.3-0.9,0.4-1.4
	c-0.1-0.4-0.2-0.8-0.3-1.2c-0.4-0.7-1-1.4-1.8-1.8c-0.1,0-0.2-0.1-0.3-0.1c-0.2-0.1-0.3-0.1-0.5-0.2c-0.1,0-0.2-0.1-0.2-0.1
	c0,0-0.1,0-0.2,0c-0.7-0.3-1.4-0.7-2-1.3c-0.6-0.6-1.2-1.1-2-1.4c-0.7-0.2-1.4-0.2-2,0.1c-0.5,0.3-1.1,0.2-1.6-0.1
	c-0.7-0.3-1.5-0.4-2.2-0.1c-0.4,0.1-0.6,0.4-0.9,0.6c0,0-0.1,0-0.2,0c-0.4,0.1-0.9,0.1-1.3,0.3c-0.1,0-0.2,0.1-0.3,0.1
	c-0.7,0.2-1.2,0.8-1.5,1.4c-0.1,0.5-0.1,1,0,1.4c0,0,0,0.1,0,0.2c0.5,1.1,1.3,1.9,2.2,2.8c0.2,0.2,0.5,0.5,0.6,0.8
	c0,0-0.1,0.1-0.1,0.1c-0.7-0.4-1.3-1.1-1.9-1.7c-0.4-0.3-0.8-0.7-1.3-0.9c-0.2-0.1-0.3-0.2-0.5-0.3c0,0-0.1,0-0.2,0
	c-0.5-0.2-1.1-0.2-1.6,0.1c-0.4,0.3-0.8,0.6-1.1,1.1c-0.3,0.6-0.3,1.2-0.4,1.8c0,0,0,0.1,0,0.2c-0.2,0.4-0.6,0.7-0.7,1.2
	c0,0.1-0.1,0.2-0.1,0.3c0,0.4-0.1,0.9,0.1,1.3c0.1,0.5,0.5,1,0.4,1.5c-0.1,0.3-0.2,0.5-0.3,0.8c0,0.1-0.1,0.2-0.1,0.3
	c-0.1,0.6-0.1,1.1,0.2,1.7c0.3,0.7,0.9,1.3,1.4,1.9c0.6,0.6,1,1.4,1.3,2.2c0.2,0.5,0.4,1.1,0.7,1.5c0.4,0.5,0.9,0.9,1.5,1.3
	c0.6,0.3,1.2,0.4,1.8,0.2c0.7-0.2,1.3-0.7,1.8-1.2c0.6-0.6,0.9-1.4,1.5-2c0.6-0.6,1.2-1.3,1.9-1.7c0.7-0.5,1.6-0.7,2.4-0.5
	c0.4,0.1,0.9,0.3,1.2,0.5c0.5,0.3,1,0.7,1.4,1.2c2.5,2.5,5,5,7.6,7.6c-0.5,0.5-1,1-1.5,1.5c-0.4,0.4-1.1,0.5-1.6,0.2
	c-0.4-0.2-0.6-0.5-0.9-0.7c-0.6-0.3-1.3-0.4-1.9-0.2c-0.6,0.3-1.3,0.5-1.9,0.8c-0.6,0.2-1,0.7-1.2,1.3c-0.1,0.5,0,1.1-0.2,1.5
	c-0.2,0.2-0.3,0.4-0.6,0.6c-0.1,0-0.2,0.1-0.3,0.1c-2.1,0-4.2,0-6.3,0c-0.6,0-1.2-0.4-1.4-1c-0.1-0.4,0-0.9-0.1-1.3
	c-0.2-0.5-0.6-1-1.1-1.2c-0.7-0.3-1.3-0.5-2-0.8c-0.6-0.3-1.3-0.2-1.9,0.1c-0.4,0.2-0.6,0.6-1,0.8c-0.5,0.2-1.2,0.1-1.6-0.3
	c-1.4-1.4-2.7-2.7-4.1-4.1c-0.4-0.4-0.6-1-0.4-1.5c0.1-0.3,0.3-0.5,0.5-0.7c0.6-0.6,0.8-1.5,0.4-2.3c-0.3-0.6-0.5-1.2-0.8-1.9
	c-0.3-0.8-1.1-1.3-1.9-1.3c-0.3,0-0.6,0-0.8-0.1C0.3,23.9,0,23.3,0,22.8c0-2,0-3.9,0-5.9c0-0.6,0.3-1.1,0.9-1.3
	c0.4-0.2,0.9,0,1.3-0.2c0.6-0.2,1.2-0.6,1.4-1.2c0.3-0.6,0.5-1.3,0.8-1.9c0.3-0.6,0.2-1.3-0.1-1.9c-0.2-0.4-0.6-0.6-0.8-1
	C3.2,8.9,3.3,8.3,3.7,7.9c1.4-1.4,2.8-2.8,4.2-4.2c0.4-0.4,1-0.5,1.6-0.3c0.4,0.2,0.6,0.6,1,0.8c0.6,0.3,1.3,0.4,1.9,0.1
	c0.7-0.3,1.3-0.6,2-0.8c0.6-0.2,1-0.8,1.2-1.4C15.6,1.7,15.4,1.3,15.6,0.8"/>
</svg>
