<?xml version="1.0" encoding="utf-8"?>
<!-- Generator: Adobe Illustrator 25.2.3, SVG Export Plug-In . SVG Version: 6.00 Build 0)  -->
<svg version="1.1" id="Layer_1" xmlns="http://www.w3.org/2000/svg" xmlns:xlink="http://www.w3.org/1999/xlink" x="0px" y="0px"
	 viewBox="0 0 1080 1080" style="enable-background:new 0 0 1080 1080;" xml:space="preserve">
<style type="text/css">
	.st0{fill:#FFFFFF;}
</style>
<g>
	<path class="st0" d="M932.5,540H754.3H610.6c-38.9,0-70.6-31.6-70.6-70.6V355.8V147.5c0-39-31.6-70.6-70.6-70.6H147.5
		c-39,0-70.6,31.6-70.6,70.6v321.9c0,39,31.6,70.6,70.6,70.6h212.4h109.5c38.9,0,70.6,31.6,70.6,70.6v139.6v182.3
		c0,38.9,31.6,70.6,70.6,70.6h321.9c38.9,0,70.6-31.6,70.6-70.6V610.6C1003.1,571.6,971.5,540,932.5,540z"/>
</g>
</svg>
